<svg xmlns="http://www.w3.org/2000/svg" width="24" height="24" viewBox="0 0 24 24" fill="none" stroke="currentColor" stroke-width="2" stroke-linecap="round" stroke-linejoin="round">
  <!-- Document outline -->
  <path d="M14 2H6a2 2 0 0 0-2 2v16a2 2 0 0 0 2 2h12a2 2 0 0 0 2-2V8z" stroke="#10b981"/>
  <polyline points="14 2 14 8 20 8" stroke="#10b981"/>

  <!-- Form lines -->
  <line x1="8" y1="10" x2="16" y2="10" stroke="#6ee7b7" stroke-width="1.5"/>
  <line x1="8" y1="13" x2="14" y2="13" stroke="#6ee7b7" stroke-width="1.5"/>

  <!-- Signature pen icon -->
  <path d="M11 16l-3 3 1 1 3-3-1-1z" fill="#10b981" stroke="#10b981" stroke-width="1"/>
  <path d="M15.5 12.5l-4 4 1 1 4-4-1-1z" fill="#6ee7b7" stroke="#10b981" stroke-width="1"/>
</svg>
