<svg xmlns="http://www.w3.org/2000/svg" viewBox="0 0 120 120" fill="none">
  <rect width="120" height="120" rx="16" fill="#1a1a2e"/>
  <circle cx="40" cy="55" r="22" fill="#16213e" stroke="#22c55e" stroke-width="2"/>
  <circle cx="33" cy="50" r="3" fill="#22c55e"/>
  <circle cx="47" cy="50" r="3" fill="#22c55e"/>
  <path d="M32 62 Q40 70 48 62" stroke="#22c55e" stroke-width="2.5" stroke-linecap="round"/>
  <circle cx="80" cy="55" r="22" fill="#16213e" stroke="#e94560" stroke-width="2"/>
  <circle cx="73" cy="50" r="3" fill="#e94560"/>
  <circle cx="87" cy="50" r="3" fill="#e94560"/>
  <path d="M72 66 Q80 58 88 66" stroke="#e94560" stroke-width="2.5" stroke-linecap="round"/>
  <rect x="25" y="85" width="70" height="15" rx="4" fill="#0f3460"/>
  <rect x="30" y="89" width="25" height="7" rx="2" fill="#22c55e"/>
  <rect x="58" y="89" width="12" height="7" rx="2" fill="#eab308"/>
  <rect x="73" y="89" width="17" height="7" rx="2" fill="#e94560"/>
  <path d="M60 20 L60 32 M54 26 L60 32 L66 26" stroke="#00d9ff" stroke-width="2" stroke-linecap="round" stroke-linejoin="round"/>
</svg>