<svg xmlns="http://www.w3.org/2000/svg" viewBox="0 0 64 64" fill="none">
  <defs>
    <linearGradient id="bgGrad" x1="0%" y1="0%" x2="100%" y2="100%">
      <stop offset="0%" style="stop-color:#1a1a2e"/>
      <stop offset="100%" style="stop-color:#16213e"/>
    </linearGradient>
    <linearGradient id="textGrad" x1="0%" y1="0%" x2="100%" y2="100%">
      <stop offset="0%" style="stop-color:#3b82f6"/>
      <stop offset="100%" style="stop-color:#06b6d4"/>
    </linearGradient>
  </defs>

  <!-- Background -->
  <rect width="64" height="64" rx="12" fill="url(#bgGrad)"/>

  <!-- Document with lines (original text) -->
  <rect x="12" y="14" width="18" height="24" rx="2" fill="none" stroke="#4b5563" stroke-width="1.5"/>
  <line x1="15" y1="19" x2="27" y2="19" stroke="#6b7280" stroke-width="1.5" stroke-linecap="round"/>
  <line x1="15" y1="23" x2="27" y2="23" stroke="#6b7280" stroke-width="1.5" stroke-linecap="round"/>
  <line x1="15" y1="27" x2="27" y2="27" stroke="#6b7280" stroke-width="1.5" stroke-linecap="round"/>
  <line x1="15" y1="31" x2="24" y2="31" stroke="#6b7280" stroke-width="1.5" stroke-linecap="round"/>

  <!-- Arrow -->
  <path d="M33 26 L38 26 L38 23 L44 26.5 L38 30 L38 27 L33 27 Z" fill="url(#textGrad)"/>

  <!-- Condensed summary (smaller doc) -->
  <rect x="46" y="20" width="10" height="13" rx="1.5" fill="none" stroke="url(#textGrad)" stroke-width="1.5"/>
  <line x1="48" y1="24" x2="54" y2="24" stroke="#22d3ee" stroke-width="1.5" stroke-linecap="round"/>
  <line x1="48" y1="28" x2="52" y2="28" stroke="#22d3ee" stroke-width="1.5" stroke-linecap="round"/>

  <!-- AI sparkle -->
  <circle cx="51" cy="44" r="6" fill="url(#textGrad)" opacity="0.2"/>
  <text x="51" y="47" font-family="system-ui" font-size="8" fill="#22d3ee" text-anchor="middle" font-weight="bold">AI</text>

  <!-- TL;DR label -->
  <text x="32" y="54" font-family="system-ui" font-size="6" fill="#9ca3af" text-anchor="middle" letter-spacing="0.5">TL;DR</text>
</svg>
